<?xml version="1.0" encoding="UTF-8"?>
<svg version="1.1" viewBox="0 0 892.91 194.17" xmlns="http://www.w3.org/2000/svg" xmlns:cc="http://creativecommons.org/ns#" xmlns:dc="http://purl.org/dc/elements/1.1/" xmlns:rdf="http://www.w3.org/1999/02/22-rdf-syntax-ns#">
<g transform="translate(100.14 -391.2)">
<g transform="matrix(4.993 0 0 4.993 403.38 -2341)" fill="#E60000">
<path d="m-31.377 574.7c-0.94006 0.61361-2.4935 1.4314-4.4556 1.4314-3.7196 0-4.6603-2.4938-4.6603-4.3751 0-0.5714 0.08192-1.0219 0.20479-1.3886-4.7014 3.515-8.2984 8.8698-9.5251 10.791-0.73584 1.1448-1.308 2.1667-1.594 2.6569-0.28609 0.57271-0.49082 0.73653-0.94006 0.73653h-3.6795c-0.44983 0-0.57211-0.20478-0.57211-0.44927 0-0.32756 1.1852-2.2896 1.5531-2.8617-1.962 1.9204-4.0468 3.9649-6.9904 3.9649-2.5341 0-3.556-1.7988-3.556-3.3109 0-0.49017 0.0813-1.2676 0.16317-1.5122-1.3489 1.5122-4.6188 4.823-8.5024 4.823-2.9026 0-3.5157-2.289-3.5157-3.597 0-0.32758 0.08194-0.89968 0.12288-1.0635-1.0219 1.3496-5.1916 4.8236-9.198 4.8236-3.2297 0-6.0906-2.7382-8.2164-2.7382-1.5947 0-3.3928 2.4112-4.3335 2.4112-0.61306 0-1.0629-0.49017-1.0629-1.0219 0-0.65404 0.57268-1.0629 1.5127-1.5531 0.89907-0.44925 2.289-1.2261 3.7204-2.1258 1.5531-0.98038 11.772-8.0533 13.081-8.6662-2.6575 0.40888-6.3364-1.3074-8.0123-1.3074-1.676 0-2.4937 1.4302-2.7388 1.7566-0.20477 0.28726-0.40888 0.36857-0.57274 0.36857-0.36788 0-0.85811-0.36857-0.85811-0.61304 0-0.1638 0-0.32756 0.28606-0.6949 1.4717-1.9217 4.0059-4.8643 7.2764-4.8643 3.2289 0 6.1726 1.8388 8.7482 1.8388 0.85813 0 1.267-0.40897 1.553-0.8172 0.40895-0.61369 0.65403-1.3083 1.635-1.3083 0.7769 0 1.1448 0.4089 1.1448 0.98069 0 1.1038-1.5531 1.7168-4.4147 3.6795-2.4118 1.635-10.996 7.5214-13.327 8.9523 3.1073-0.44926 5.7233 2.0848 8.3802 2.0848 1.2676 0 3.3525-0.61361 6.5405-4.2515 0.8997-1.7578 5.1097-8.2574 5.6415-9.0752 0.49082-0.73588 0.85876-1.2261 1.635-1.267l2.7798-0.16324c0.4908-0.0415 0.85875-0.0825 1.3086-0.0825 0.49018 0 0.61303 0.24573 0.61303 0.45046 0 0.28603-0.08193 0.61243-1.1857 2.1661-2.289 3.27-7.3987 10.751-7.3987 12.631 0 0.65397 0.28602 0.90032 0.85815 0.90032 1.8807 0 5.3547-3.3934 7.0722-5.3561 1.7169-1.9619 5.8046-8.6657 6.2545-9.4425 0.36789-0.61304 0.77622-1.0628 1.553-1.1038l2.6569-0.16324c0.49082-0.0415 0.85878-0.0825 1.3086-0.0825 0.4902 0 0.61305 0.24572 0.61305 0.45046 0 0.28603-0.16316 0.53054-1.1857 2.1661-0.81721 1.2676-3.4338 5.1513-5.3548 8.3394-1.1857 1.9626-2.0848 3.6795-2.0848 4.3334 0 0.65398 0.28602 0.85879 0.94 0.85879 1.676 0 6.5405-4.2925 10.751-11.037 0.65398-1.0635 1.5127-2.6569 2.1667-3.7614 0.36795-0.61303 0.77621-1.0628 1.5531-1.1038l2.3709-0.16323c0.49082-0.0415 0.81783-0.0825 1.3086-0.0825 0.44926 0 0.61305 0.20473 0.61305 0.49083 0 0.20472-0.36794 0.77683-0.77684 1.4314-0.61304 0.98092-1.635 2.616-1.8397 2.9423 0.77683-0.73464 2.9845-2.6978 4.2925-3.6788 1.1038-0.85812 2.0439-1.7166 4.3735-1.7166h1.4314c0.65341 0 0.89938 0.12225 0.89938 0.48987 0 0.24571-0.20466 0.49144-0.53199 0.9816-0.73541 1.1039-1.8795 2.7798-1.8795 4.5376 0 0.8997 0.36738 1.635 1.5528 1.635 0.49069 0 1.0627-0.20468 1.4308-0.40887 0.36801-0.20416 0.7767-0.57148 1.186-0.57148 0.40808 0 0.73542 0.36732 0.73542 0.69499 0 0.40824-0.32734 0.61241-0.85871 0.98035"/>
<path d="m72.823 568.65c0 3.27-5.0696 6.4996-9.1979 6.9085 1.718-4.3737 6.1317-8.0538 7.9299-8.0538 0.98198 0 1.268 0.49138 1.268 1.1454zm4.4556 1.0623c0-2.902-2.9842-3.5967-5.3137-3.5967-5.1516 0-14.227 5.478-14.227 12.632 0 3.9655 2.0854 6.4586 7.0317 6.4586 5.3969 0 9.7286-3.3519 10.301-3.8011 0.89939-0.73653 1.3087-1.2267 1.3087-1.5537 0-0.4095-0.32732-0.77745-0.81739-0.77745-0.40993 0-0.9413 0.53181-1.7174 1.1045-1.1448 0.81778-3.8422 2.5347-6.7038 2.5347-3.7202 0-4.2115-2.2896-4.2115-3.8432 0-0.57211 0.082-1.1442 0.20531-1.676 3.7202-0.53175 14.144-2.289 14.144-7.4812zm-18.231 0.0825c0-2.5347-2.5354-3.6791-5.1109-3.6791-4.9456 0-7.6438 2.9427-7.6438 5.8453 0 3.3121 4.9456 5.0687 4.9456 8.2984 0 2.534-1.8394 3.4337-3.5155 3.4337-1.5121 0-2.9836-0.69493-2.9836-2.8201 0-1.8801 0.94006-1.8397 0.94006-2.6978 0-0.44988-0.53075-0.77746-1.6348-0.77746-1.6354 0-3.2708 1.308-3.2708 3.4753 0 2.5341 2.3714 4.3328 6.623 4.3328 5.641 0 8.3792-3.4344 8.3792-6.5814 0-4.0878-5.1096-5.6414-5.1096-8.8295 0-1.7584 1.39-2.2901 2.2901-2.2901 0.69409 0 2.2475 0.28727 2.2475 2.2901 0 1.9211-0.7761 1.7988-0.7761 2.657 0 0.61359 0.85807 0.77683 1.554 0.77683 1.5935 0 3.0655-1.2676 3.0655-3.4338zm-16.474 1.9211c0-3.2296-2.2901-5.6002-6.2137-5.6002-7.2771 0-14.267 7.399-14.471 13.286-0.73604 0.94-3.5156 3.6385-5.7236 3.6385-0.65405 0-1.1441-0.32704-1.1441-0.9407 0-2.3714 3.1469-6.7043 3.1469-10.465 0-1.9216-1.2261-3.9655-3.5969-4.1696 6.2544-1.1035 11.569-5.0274 11.569-10.914 0-6.3364-6.6637-8.6259-15.248-8.6259-11.527 0-18.518 4.9471-23.301 8.7892-5.723 4.5785-9.9339 12.181-9.9339 18.845 0 5.7228 2.6982 9.6473 9.4845 9.6473 6.2137 0 10.342-2.1661 14.676-7.318 1.3894-1.6343 4.2916-5.6402 6.541-9.9333 0.94006-0.0403 1.7981-0.0819 2.6975-0.0819 1.5941 0 2.1662 0.53175 2.1662 1.5537 0 0.53173-0.20404 1.3495-0.57205 2.2896-1.0621 2.5756-3.1075 6.2954-3.1075 9.2799 0 2.2071 1.4314 4.21 4.8656 4.21 4.0056 0 7.0718-2.9026 7.7671-3.7198 0.69408 2.2486 2.7795 3.7608 5.9677 3.7608 7.3171 0 14.431-7.6034 14.431-13.531zm-4.8236-2.0035c0 4.5389-5.3556 14.103-9.4851 14.103-0.77609 0-1.5522-0.53052-1.5522-2.1252 0-4.537 5.3556-14.144 9.4833-14.144 0.77734 0 1.554 0.57205 1.554 2.1661zm-30.904-12.631c0 1.2676-1.104 4.5376-3.3115 8.7886-2.5354-0.65344-3.1075-2.0849-3.1075-3.883 0-2.6575 1.9621-6.5412 4.7416-6.5412 1.3494 0 1.6774 0.73591 1.6774 1.6356zm13.489-0.77626c0 5.3548-5.845 9.6058-11.161 9.9737 1.35-2.943 2.3314-5.8859 2.3314-8.2574 0-1.962-0.77732-4.5779-4.8236-4.5779-5.4789 0-8.0951 5.1097-8.0951 8.5025 0 2.4528 1.022 4.4557 4.2115 5.4364-0.5733 1.1038-1.2674 2.2896-2.0034 3.4753-4.9056 8.052-9.5652 12.304-14.103 12.304-3.8429 0-5.6823-2.1655-5.6823-6.2129 0-11.732 12.55-26.898 29.024-26.898 4.4143 0 10.301 0.65399 10.301 6.2551"/>
</g>
</g>
</svg>
